# xmcd
#
# Track frame offsets: 
#        150
#        10277
#        18154
#        31979
#        43413
#        54905
#        66790
#        74397
#        83929
#        91498
#        101675
#        109844
#        122449
#        133711
#        146064
#        152051
#
# Disc length: 2175 seconds
#
# Revision: 0
# Processed by: cddbd v1.5.2PL0 Copyright (c) Steve Scherf et al.
# Submitted via: ExactAudioCopyFreeDBPlugin 1.0
#
DISCID=d9087d10
DTITLE=Jim Reeves - The Country Collection
DYEAR=2001
DGENRE=Country
TTITLE0=He´ll Have To Go
TTITLE1=Til The End Of The World
TTITLE2=How´s The World Treating You
TTITLE3=If Heartaches Are In Fashion
TTITLE4=I Love You More
TTITLE5=I´ve Lived Alot In My Time
TTITLE6=The Oklahoma Hills
TTITLE7=I´m Getting Better
TTITLE8=Bimbo
TTITLE9=Anna Marie
TTITLE10=Waiting For A Train
TTITLE11=When God Dips His Love In My Heart
TTITLE12=Just Call Me Lonesome
TTITLE13=Your Old Love Letters
TTITLE14=Have I Told You Lately
TTITLE15=Am I Losing You
EXTD=
EXTT0=
EXTT1=
EXTT2=
EXTT3=
EXTT4=
EXTT5=
EXTT6=
EXTT7=
EXTT8=
EXTT9=
EXTT10=
EXTT11=
EXTT12=
EXTT13=
EXTT14=
EXTT15=
PLAYORDER=
